<?xml version="1.0" encoding="utf-8"?>
<!-- Generator: Adobe Illustrator 24.1.0, SVG Export Plug-In . SVG Version: 6.00 Build 0)  -->
<svg version="1.1" id="Layer_1" xmlns="http://www.w3.org/2000/svg" xmlns:xlink="http://www.w3.org/1999/xlink" x="0px" y="0px"
	 viewBox="0 0 500 175" style="enable-background:new 0 0 500 175;" xml:space="preserve">
<style type="text/css">
	.st0{fill:#F05423;}
	.st1{fill:#231F20;}
</style>
<g>
	<path class="st0" d="M248.1,159.9c2,0,2.9,0.7,2.9,2.8v7c0,2-0.9,2.8-2.9,2.8H205c-2,0-2.9-0.8-2.9-2.8v-7c0-2.1,0.9-2.8,2.9-2.8
		H248.1z"/>
</g>
<g>
	<path class="st1" d="M195.3,92.2c2.2,0,4,1.7,4,4c0,2.3-1.8,4-4,4c-2.2,0-4-1.7-4-4C191.3,93.9,193.1,92.2,195.3,92.2z M195.3,99.6
		c1.9,0,3.3-1.5,3.3-3.4c0-1.9-1.4-3.4-3.3-3.4c-1.9,0-3.3,1.5-3.3,3.4C192,98.1,193.5,99.6,195.3,99.6z M193.8,93.9h1.8
		c1.1,0,1.6,0.4,1.6,1.3c0,0.8-0.5,1.2-1.2,1.3l1.3,2.1h-0.8l-1.3-2h-0.8v2h-0.7L193.8,93.9L193.8,93.9z M194.5,95.9h0.8
		c0.6,0,1.2,0,1.2-0.8c0-0.6-0.5-0.7-1-0.7h-1L194.5,95.9L194.5,95.9z"/>
</g>
<g>
	<path class="st1" d="M189.4,169.6c0,2-0.7,2.9-2.8,2.9h-9.3c-1.5,0-2.1-0.4-2.7-1.4L151.7,132c-1.9-2.8-3.5-6.7-4.7-9.7v47.2
		c0,2-0.7,2.9-2.8,2.9h-9.3c-2.1,0-2.8-0.9-2.8-2.9V95.2c0-2,0.7-2.9,2.8-2.9h9.3c1.3,0,2.1,0.3,2.5,1.2l23.8,40.8
		c1.2,1.9,3.1,6,4,8.3V95.2c0-2,0.7-2.9,2.8-2.9h9.3c2.1,0,2.8,0.9,2.8,2.9V169.6z"/>
	<path class="st1" d="M65.7,110.5c0-9.9,7.3-19.3,28.7-19.3c21.4,0,28.7,9.3,28.7,19.3v43.7c0,9.9-7.3,19.3-28.7,19.3
		c-21.4,0-28.7-9.3-28.7-19.3V110.5z M107.2,113.3c0-5.9-4.8-8.9-12.8-8.9s-12.6,2.9-12.6,8.9v38c0,5.9,4.7,8.9,12.6,8.9
		s12.8-2.9,12.8-8.9V113.3z"/>
	<path class="st1" d="M57.3,154.2c0,9.9-6.4,19.3-27.8,19.3s-27.8-9.3-27.8-19.3v-43.7c0-9.9,6.4-19.3,27.8-19.3s27.8,9.3,27.8,19.3
		v5.7c0,2.1-0.7,2.9-2.7,2.9h-9.8c-2.1,0-3-0.8-3-2.9v-2.8c0-5.9-4.1-8.9-12-8.9s-11.9,2.9-11.9,8.9v38c0,5.9,4,8.9,11.9,8.9
		s12-2.9,12-8.9v-4.5c0-2.1,0.8-2.9,3-2.9h9.8c2,0,2.7,0.8,2.7,2.9V154.2z"/>
</g>
<g>
	<path class="st1" d="M134.9,82.7c-2.1,0-2.8-0.9-2.8-3.1V5.4c0-2.1,0.7-3.1,2.8-3.1h50.4c2,0,2.9,0.7,2.9,2.8v7.4
		c0,2.1-0.9,2.9-2.9,2.9H148v19.1h35.3c2.1,0,3.1,0.7,3.1,2.8v7.1c0,2-0.9,2.8-3.1,2.8H148v22h38.5c2.1,0,2.9,0.7,2.9,2.8v7.4
		c0,2.1-0.8,2.9-2.9,2.9L134.9,82.7L134.9,82.7z"/>
	<path class="st1" d="M81.7,52.1v27.5c0,2.1-0.7,3.1-2.8,3.1H68.6c-2.1,0-2.8-0.9-2.8-3.1V5.4c0-2.1,0.7-3.1,2.8-3.1h26
		c21.4,0,28.6,9.3,28.6,19.3v11.2c0,7-3.5,13.6-13,17L123,79.6c0.7,1.9-0.6,3.1-2.7,3.1h-10.4c-1.8,0-2.1-1.2-2.9-3.1L95.3,52.1
		h-0.7H81.7z M81.7,15.6v23.3h12.9c7.9,0,12.8-3,12.8-8.9v-5.5c0-5.9-4.8-8.9-12.8-8.9C94.6,15.6,81.7,15.6,81.7,15.6z"/>
	<path class="st1" d="M29.6,14.3C21.9,14.3,18,17,18,22.8v1.8c0,4.1,3,5.7,4.8,6.4l20.6,7.3c8,2.8,13.9,8.3,13.9,17v9.1
		c0,9.9-7,19.3-28.1,19.3C8.2,83.6,1,74.3,1,64.3v-7.4c0-2.1,0.8-3.1,2.8-3.1h9.9c2.1,0,2.8,1,2.8,3.1v5.3c0,5.8,4.5,8.5,12.5,8.5
		c7.9,0,12.5-2.7,12.5-8.5v-3.8c0-5.1-5.4-7.1-10-8.7l-18.3-7C7.6,40.6,2.5,34.6,2.5,27.5v-6.9c0-9.9,6.1-19.3,26.8-19.3
		c20.7,0,27.3,9.3,27.3,19.3v4.8c0,2-0.8,3-3,3h-9.9c-2,0-2.7-0.9-2.7-3v-2.7C41,17,37.2,14.3,29.6,14.3z"/>
</g>
<g>
	<path class="st1" d="M279.6,134.4c0.5,0,0.7,0.2,0.8,0.7l11.4,36.7c0.2,0.4-0.1,0.7-0.5,0.7h-1.7c-0.5,0-0.7-0.2-0.8-0.7l-3.4-10.9
		h-13.5l-3.3,10.9c-0.1,0.4-0.3,0.7-0.8,0.7h-1.6c-0.5,0-0.7-0.2-0.5-0.7l11.4-36.7c0.1-0.4,0.4-0.7,0.8-0.7
		C277.9,134.4,279.6,134.4,279.6,134.4z M280,143.5c-0.7-2.1-1.2-4.9-1.4-6c-0.2,0.9-0.8,4.4-1.3,5.9l-4.8,15.1h12.1L280,143.5z"/>
	<path class="st1" d="M326.9,171.8c0,0.4-0.2,0.7-0.6,0.7h-1.6c-0.5,0-0.7-0.2-0.7-0.7v-31c-0.2,0.6-0.7,2.1-1,3l-9.2,22.2
		c-0.2,0.4-0.5,0.7-0.9,0.7h-1.6c-0.5,0-0.7-0.2-0.8-0.7l-9.5-22.6c-0.2-0.3-0.6-1.5-0.8-2.5v31c0,0.4-0.2,0.7-0.6,0.7H298
		c-0.5,0-0.7-0.2-0.7-0.7v-36.7c0-0.5,0.2-0.7,0.7-0.7h1.5c0.3,0,0.5,0.1,0.6,0.4l11.1,26.1c0.3,0.7,0.6,1.7,0.9,2.6
		c0.2-0.5,0.7-2,1-2.6l11-26.3c0.1-0.2,0.3-0.3,0.6-0.3h1.6c0.5,0,0.6,0.2,0.6,0.7L326.9,171.8L326.9,171.8z"/>
	<path class="st1" d="M336.8,172.5c-0.4,0-0.6-0.2-0.6-0.7v-36.7c0-0.5,0.2-0.7,0.7-0.7H356c0.5,0,0.7,0.2,0.7,0.7v1.2
		c0,0.5-0.2,0.7-0.7,0.7h-16.8v14.2h15.8c0.5,0,0.7,0.2,0.7,0.7v1.2c0,0.5-0.2,0.7-0.7,0.7h-15.8v16.2h17.5c0.5,0,0.7,0.2,0.7,0.7
		v1.2c0,0.5-0.2,0.7-0.7,0.7L336.8,172.5L336.8,172.5z"/>
	<path class="st1" d="M366.4,172.5h-1.7c-0.5,0-0.7-0.2-0.7-0.7v-36.7c0-0.5,0.2-0.7,0.6-0.7h10.9c9,0,11.7,3.5,11.7,7.9v6.5
		c0,3.6-1.7,6.5-7.1,7.5l7.6,15.5c0.2,0.4-0.1,0.7-0.6,0.7h-1.9c-0.5,0-0.7-0.3-0.8-0.7l-7.3-15.2c-0.5,0.1-1,0.1-1.6,0.1H367v15.1
		C367,172.2,366.8,172.5,366.4,172.5z M367,137v17.2h8.6c6.5,0,8.7-2.4,8.7-5.8v-5.7c0-3.4-2.2-5.8-8.7-5.8L367,137L367,137z"/>
	<path class="st1" d="M398.2,171.8c0,0.4-0.2,0.7-0.6,0.7h-1.7c-0.5,0-0.7-0.2-0.7-0.7v-36.7c0-0.5,0.2-0.7,0.7-0.7h1.7
		c0.5,0,0.6,0.2,0.6,0.7V171.8z"/>
	<path class="st1" d="M429.7,165c0,4.4-2.4,7.9-11.4,7.9c-9,0-11.4-3.5-11.4-7.9v-23.2c0-4.4,2.4-7.9,11.4-7.9
		c9,0,11.4,3.5,11.4,7.9v2.9c0,0.5-0.2,0.7-0.6,0.7h-1.6c-0.5,0-0.7-0.2-0.7-0.7v-2.5c0-3.4-2-5.8-8.5-5.8c-6.5,0-8.5,2.4-8.5,5.8
		v22.3c0,3.4,1.9,5.8,8.5,5.8c6.5,0,8.5-2.3,8.5-5.8v-3.2c0-0.4,0.2-0.6,0.7-0.6h1.6c0.5,0,0.6,0.2,0.6,0.6V165z"/>
	<path class="st1" d="M446.8,134.4c0.5,0,0.7,0.2,0.8,0.7l11.4,36.7c0.2,0.4-0.1,0.7-0.5,0.7h-1.7c-0.5,0-0.7-0.2-0.8-0.7l-3.4-10.9
		H439l-3.3,10.9c-0.1,0.4-0.3,0.7-0.8,0.7h-1.6c-0.5,0-0.7-0.2-0.5-0.7l11.4-36.7c0.1-0.4,0.4-0.7,0.8-0.7
		C445.1,134.4,446.8,134.4,446.8,134.4z M447.2,143.5c-0.7-2.1-1.2-4.9-1.4-6c-0.2,0.9-0.8,4.4-1.3,5.9l-4.8,15.1h12.1L447.2,143.5z
		"/>
	<path class="st1" d="M482.1,142.2c0-3.4-1.9-5.7-8.3-5.7c-6.5,0-8.4,2.4-8.4,5.7v2.1c0,2.9,2,4.1,3.6,4.8l10.8,4.1
		c2.8,1.1,5.6,3.2,5.6,7v4.9c0,4.4-2.7,7.9-11.6,7.9c-8.9,0-11.6-3.5-11.6-7.9v-2.9c0-0.5,0.2-0.7,0.6-0.7h1.6
		c0.5,0,0.7,0.2,0.7,0.7v2.6c0,3.4,2.1,5.7,8.7,5.7c6.5,0,8.7-2.4,8.7-5.7v-4c0-3-2.5-4.4-4.6-5.2l-10.4-4c-2.3-0.9-4.9-3.1-4.9-6.6
		v-3c0-4.4,2.5-7.9,11.3-7.9s11.3,3.5,11.3,7.9v2.7c0,0.5-0.2,0.7-0.6,0.7h-1.6c-0.5,0-0.7-0.2-0.7-0.7L482.1,142.2L482.1,142.2z"/>
</g>
</svg>
